<svg height="376pt" width="656pt" viewBox="0 0 656 376" preserveAspectRatio="xMidYMid meet" xmlns="http://www.w3.org/2000/svg"><g transform="matrix(.1 0 0 -.1 0 376)"><path d="m5962 3653c-6-2-9-10-5-15 4-7-2-9-17-5-13 3-38 0-54-8-62-30-183-159-201-214-9-30-21-26-29 12l-7 32-14-40c-7-22-16-58-21-80-4-22-8-44-9-50-2-5-6-28-9-50-4-22-12-58-18-80s-12-56-14-76-10-84-19-143c-9-58-17-142-18-185-1-69 2-81 23-109 29-36 42-36 47-1 5 36 11 49 23 49 6 0 9-4 6-8-5-8 18-130 27-138 3-3 13 6 22 20 10 14 22 23 31 19 10-4 14 3 14 23 0 34 22 100 38 116 7 7 12 23 12 38 0 14 12 59 26 100s34 109 44 150c67 269 159 397 297 415 20 2 31 0 28-5-4-6-2-10 4-10 5 0 12 4 15 8 7 12 96 15 96 2 0-10-19-14-55-12-16 2-17 0-5-8 25-17 47-11 72 18 12 15 34 29 48 31 41 5 60 20 60 46 0 14-5 25-11 25s-8 7-5 16c7 18-15 44-37 44-8 0-20 6-26 14-10 12-69 28-111 30-8 1-21 5-29 10s-27 9-42 8c-16 0-31 4-35 9-3 5-11 6-17 2-7-4-28-8-47-8-19-1-44-5-54-10-16-7-18-5-13 8 3 9 5 17 4 16-1 0-8-3-15-6z"/><path d="m2590 3630c-19-5-78-12-130-15-148-10-339-50-504-106-164-57-530-190-721-264-93-36-124-44-137-35-14 8-18 7-18-4 0-7-7-19-15-26-13-11-15-5-15 40v53l-18-24c-10-13-26-42-35-64-16-36-27-44-95-74-255-113-495-240-618-328-102-73-147-147-54-88 23 15 44 24 46 22 6-6-43-56-81-83l-30-22 54 10c67 12 308 95 469 162 123 52 186 76 194 76 4 0 8-11 8-25 0-22-53-374-66-438-5-22-20-35-77-64-40-19-101-52-137-73-111-64-209-112-219-105-16 9-51-27-51-52 0-15 9-27 25-35 32-14 32-26 0-34-14-3-25-10-25-15s-10-13-22-18c-20-7-19-9 17-21 22-8 47-13 55-12 37 3 228 23 257 27 18 2 50 13 72 25l41 20v-27c0-16-9-86-20-158-11-71-23-206-27-299-6-154-5-169 10-163 9 3 19 2 22-3 3-4 0-10-7-12-7-3 3-22 27-51 21-25 43-43 48-40s13-1 18-8c6-10 9-4 9 19 0 44 29 172 44 197 7 11 18 47 25 80 8 33 18 63 23 66s18 71 28 150c34 250 51 354 58 360 4 4 106 45 227 93 446 177 502 206 552 284 39 60 56 113 47 146-7 31-15 32-39 6-10-11-23-19-29-18-6 0-18-1-26-4-43-16-109-32-140-34-19-2-46-6-60-10-14-3-52-10-85-14-98-14-143-26-270-74-66-25-124-46-128-46s-5 24-2 53c12 107 14 125 25 272 7 83 13 151 15 153 1 2 56 23 121 48 66 25 155 59 199 75 44 17 184 69 310 114 565 205 646 236 727 273 92 43 178 117 178 153 0 21 1 21-50 9zm-2248-876c-13-9-26-13-30-9-8 8 17 25 38 25 9 0 6-6-8-16zm48-634c12-8 11-10-7-10-13 0-23 5-23 10 0 13 11 13 30 0z"/><path d="m5062 3402c-18-2-30-7-27-13 3-5-1-6-9-3-21 8-135-74-180-129-33-41-106-180-106-203 0-6-9-39-21-75-12-35-22-85-23-111s-5-51-9-54c-3-3-3-12 0-20s0-14-6-14-11 7-11 17c0 9-3 13-7 10-5-6-7-36-4-93 1-8 6-12 12-8 8 4 9 0 4-15-7-22 19-55 117-153 63-62 144-72 303-39 124 26 195 55 247 100 50 45 90 117 81 149-5 21-23 31-23 14 0-27-261-52-394-38-125 14-126 53-2 75 42 8 76 18 76 22 0 5 5 9 11 9 5 0 7-4 4-10-3-5-3-10 2-10 17 1 54 27 107 78 39 37 57 62 58 80 0 15 7 41 14 57 7 17 17 43 23 58 7 19 15 26 23 21s7-1-2 10c-13 16-12 20 5 32s17 14 2 14c-22 0-22 9 1 26 16 13 16 13 0 14-22 0-24 20-3 20 25 0 17 40-10 50-14 5-25 13-25 18 0 15-53 72-86 93-34 20-79 27-142 21zm40-249c3-10-3-34-13-54-21-42-95-112-110-103-32 19 63 174 107 174 7 0 14-8 16-17zm-412-403c0-5-2-10-4-10-3 0-8 5-11 10-3 6-1 10 4 10 6 0 11-4 11-10z"/><path d="m6070 3385c-14-8-20-14-14-15 5 0 19 7 30 15 24 18 16 19-16 0z"/><path d="m2061 3223c0-13-5-23-9-23-12 0-58-195-82-345-43-281-62-401-65-427-2-15-14-80-25-145-26-141-38-339-27-443 11-103 58-200 97-200 14 0 19 12 25 58 3 31 13 80 21 107 8 28 24 97 35 155 19 95 25 134 34 225 1 17 10 71 18 120 9 50 19 110 22 135 24 193 24 200 31 459 6 195 5 243-6 236-9-5-10-2-6 12 3 10-1 28-9 39-14 17-15 11-14-74 1-51-1-96-5-99-3-4-6 0-7 8-3 51-26 220-28 202z"/><path d="m4538 3202c-10-21-44-69-76-107-32-39-74-91-93-116s-52-70-75-100c-22-30-62-93-88-141-26-49-51-88-56-88s-12 15-15 33c-15 66-56 187-65 187-5 0-25 31-46 69-27 51-41 68-53 63-9-3-13-2-9 3 4 4 3 14-3 22-22 26-27 12-9-24 10-21 16-40 13-43-7-7-62 62-63 80-1 10-4 8-9-5-9-20 13-134 46-239 15-50 22-221 11-284-9-53 41-190 54-150 4 11 8 11 21-1 18-14 24-36 7-26-12 7-13-25-2-43 7-10 15-10 37-2 15 6 42 8 59 5 63-12 88-11 93 2 3 7 9 11 13 8 5-3 6 3 3 14-3 13-11 17-26 14-21-4-21-4 1 14 13 10 42 34 65 53l42 35-19-30c-11-16-27-35-35-42-15-11-14-12 0-13 9 0 22 7 29 15 7 9 20 13 28 10 12-4 12-3 3 9-10 12-8 16 9 21 11 3 18 11 14 16-3 6 2 17 12 24 11 8 16 15 12 15-9 0 26 83 50 119 31 45 169 343 186 400 26 89 14 219-22 249-22 17-25 16-44-26zm-524-331c-6-6-24 19-24 34 1 6 7 1 15-9 8-11 12-22 9-25z"/><path d="m3434 2972c-108-59-220-156-230-200-6-26-33-81-44-92-17-16-40-62-40-80 0-11-5-20-11-20s-8-9-4-20c4-12 2-20-6-20s-9-4 0-13c8-10 7-17-1-25s-8-15 1-26 9-15-1-18c-9-4-10-9-3-19 6-8 17-32 24-54 8-22 32-64 54-94 31-42 53-60 106-84 59-28 76-32 171-33 58-1 132 3 165 9 53 11 66 18 114 67 100 104 130 216 96 362-19 84-44 157-59 176-7 10-5 16 5 23 8 5 9 9 3 9s-25 20-43 45c-31 43-31 46-15 63 17 16 15 17-32 25-27 4-72 14-100 22-65 19-111 18-150-3zm146-287c21-48 35-226 21-254-14-25-72-51-116-51-55 0-134 29-152 57-12 17-14 37-10 74 10 86 73 170 167 223 51 29 56 27 90-49z"/><path d="m2962 2920c-12-5-29-7-38-3-14 5-15 1-9-26 5-26 1-38-24-70-17-22-38-54-47-73-34-74-82-159-101-181-11-12-30-40-42-62s-38-60-57-85c-53-67-186-210-196-210-14 0-9 98 6 113 19 18 21 338 3 368-19 31-27 22-27-28 0-66-19-94-22-33-1 25-3 59-4 75-1 17-3 36-3 44-3 42-75-109-119-249-16-52-31-180-32-277 0-7-8-13-17-13-15 0-15-1 2-13 11-9 15-19 10-27-6-10-9-9-16 1-7 11-9 10-9-3 0-10 7-18 15-18s15-7 15-16c0-8-4-13-9-10s-11-3-14-15c-4-16-3-18 8-9 18 15 25 1 20-39-2-18 0-29 5-26 14 9 50-33 44-50-4-11 1-15 17-16 33-2 40-3 74-18 40-17 135-16 146 1 7 10 9 9 9-4 0-17-52-148-130-328-101-232-114-327-58-432 35-66 69-98 104-98 29 0 32 25 6 53-16 18-16 19 4 16 12-2 32 5 45 16 12 11 19 14 14 6-6-10-4-12 4-7 7 5 10 14 7 22s1 14 9 14 14 6 13 12c-2 7 5 12 16 11 12-1 15 2 8 9s-7 19-2 34c6 15 6 24 0 24s-10 14-10 31c0 27-2 30-15 19-37-30-3 57 52 136 23 34 43 66 43 70 0 5 7 23 16 39 36 68 151 374 215 570 38 116 76 230 85 255 8 25 22 77 30 115 7 39 25 103 39 143 29 84 30 103 9 143-13 26-18 28-30 18-24-20-40 16-35 74 1 9 1 17-1 16-2 0-13-4-26-9z"/><path d="m3760 2845c7-9 15-13 17-11 7 7-7 26-19 26-6 0-6-6 2-15z"/><path d="m4661 2844c0-11 3-14 6-6 3 7 2 16-1 19-3 4-6-2-5-13z"/><path d="m1438 2192c-47-106-92-300-127-552-21-148-40-287-56-405-8-66-20-147-25-180s-12-87-16-120-8-69-11-80c-18-91-37-319-37-456l-1-165 27-35c48-60 81-90 97-87 9 1 22-1 30-6 11-7 13-2 8 32-3 23-1 42 4 42s9 13 9 30 7 33 18 39c13 7 14 13 5 22-14 14-5 80 13 94 7 6 14 33 16 60 1 29 9 58 19 70 17 21 19 32 59 410 11 105 22 210 24 235 25 225 35 333 41 455 3 55 8 120 11 144 9 70 6 264-6 336-10 64-27 105-42 105-4 0-6-54-4-120s0-123-5-126-10 22-11 55c-1 34-3 73-4 89-2 15-5 53-7 84-2 32-6 60-8 62-2 3-11-12-21-32z"/><path d="m4980 2071c-30-9-66-24-80-33s-40-19-57-23c-18-4-36-11-40-17-4-8 0-9 11-5 12 5 16 3 13-5-2-7-10-12-16-11-6 2-11-4-11-13 0-10-6-14-14-11s-16-2-19-15c-4-13-10-17-18-12s-10 3-4-5c4-8-2-21-15-33-24-22-40-17-20 7 11 13 10 14-3 9-27-10-38-71-26-144 17-104 27-133 58-171 29-35 96-76 115-71 13 4 299-69 311-79 5-5-12-10-40-10-28-1-40-4-27-6 12-2 22-8 22-11 0-4-51-32-112-61-62-30-129-67-149-83-42-32-49-34-49-12 0 9 9 18 20 21s20 9 20 14c0 16-17 9-44-18l-26-26 20-19c26-24 25-30-4-57-20-19-23-29-19-64 3-23 10-50 15-59 10-21 34-14 41 11 3 12 18 21 43 24 72 11 81 14 113 30 28 14 32 14 27 2-4-12 0-14 22-9 15 4 37 14 49 21 17 11 27 12 42 3 17-9 22-8 27 4 5 13 136 96 150 96 16 0 169 127 185 154 35 53 13 220-30 234-11 4-12 0-6-14 27-66 6-88-31-31-12 19-27 31-37 29s-17 4-17 13c0 12-6 15-20 10-11-3-20-3-20 2 0 4-15 9-34 10-73 6-116 43-49 43 48 0 19 8-52 15-64 6-231 53-264 74-7 5-10 14-6 20 13 21 86 62 118 66 18 2 52 11 76 20 58 20 78 20 61 0-7-8-10-15-8-15 19 0 157 73 173 91l20 22-37-7c-44-8-50 4-10 21 15 6 43 18 62 27 35 14 35 14 7 15-15 1-30 8-34 17-3 8-12 13-20 10-7-3-33 1-56 8-71 24-233 27-297 7z"/><path d="m3554 2066c-3-8-2-20 2-27 4-8 3-9-5-5-39 25-51-96-13-138 48-55 56-79 58-171 2-133 2-135 22-142 9-4 20-11 24-17 5-7 8-7 8 2 0 16 41 72 52 72 4 0 8-9 8-21 0-11 6-27 14-34 11-12 15-8 25 24 6 21 11 46 11 55 0 19 4 19 47 7 21-6 35-6 39 0 3 6 13 9 22 8 35-4 81 13 75 27-3 9 1 14 12 14 9 0 13 5 10 10-3 6-24 10-45 10-40 0-63 16-33 22 14 3 11 8-14 21-35 19-39 30-23 71 11 31-2 115-20 126-7 5-10 15-7 24 11 29-10 25-46-9-42-40-53-43-62-16-11 35-78 92-105 89-14-1-31 1-38 6-7 4-14 1-18-8zm276-111c0-17-27-32-37-21-4 3 2 13 13 21 24 18 24 18 24 0z"/><path d="m3260 1928c0-15-11-52-25-82s-25-59-25-65c0-5-6-22-14-38-50-101-69-177-100-410-12-88-24-122-33-96-2 7-11 9-20 6-10-4-14-2-10 4 7 11-73 52-118 59-80 14-115 16-115 5 0-6-8-11-17-11-16-1-16-2 1-15 19-14 19-15 0-21-44-14-70-32-134-94-56-54-97-109-101-135-4-28-14-45-28-46-10 0-11-2-3-6 6-2 12-9 12-15s-7-7-16-4c-13 5-14 3-7-6 5-7 6-26 2-43-3-16-7-23-8-15-1 11-3 12-9 3-12-19-6-73 10-86 8-7 31-34 50-62 54-75 89-97 157-99 86-2 113 6 238 67l72 35 6-39c13-78 16-94 18-113 2-23 92-114 125-127 13-5 36-9 52-9 26 0 27 1 17 25-7 14-18 25-24 25-7 0-13 5-13 10 0 6 9 10 20 10 13 0 17 5 14 14-3 8 0 25 7 38s14 34 16 48c6 44 8 55 17 68 5 8 4 18-2 24-8 8-8 17-1 31 8 14 7 32-1 63-9 29-9 48-3 56 11 13 33 138 39 218 2 25 8 68 14 95 5 28 17 120 26 205s24 192 35 236c33 142 39 205 20 231-9 12-26 23-38 23-15 0-25 9-33 34-9 28-15 33-40 32-26-1-30-5-30-28zm-320-843c7-8 21-15 31-15 22 0 25-25 4-34-8-3-13-11-10-18 3-8-24-32-63-59-78-53-121-72-154-67-19 2-22 8-20 32 10 97 166 216 212 161z"/><path d="m4297 1743c-4-3-23-8-43-10-89-9-162-72-242-206-35-59-72-109-82-112-22-7-25-16-9-32 15-15 0-66-17-59-10 4-14-3-13-22 0-23 2-24 8-8 5 12 10 16 14 9 10-16-2-43-19-43-27 0-10-81 26-128 11-15 39-51 62-80 64-84 119-96 328-77 240 22 344 73 398 193 29 66 11 111-28 72-11-11-25-18-29-16-5 3-30-1-57-8-82-24-354-28-354-5 0 5 19 14 43 20s48 19 55 30c11 17 9 19-18 19-16 0-30 5-30 10 0 6 5 10 10 10 6 0 39 22 74 49 35 28 67 47 72 43 4-4 4-1-1 7-5 9-3 18 6 25 8 6 20 24 27 39 6 15 17 25 22 22 6-4 7 1 3 11-5 13-3 15 7 9s11-4 4 6c-12 19-12 59-1 59 5 0 4 6-2 13-6 8-8 16-5 19 16 17-55 107-103 132-32 16-94 22-106 9zm8-223c-8-24-82-77-93-66-4 4 15 28 41 53 50 47 64 50 52 13zm-125-290c0-5-9-9-20-7-31 5-36 17-7 17 15 0 27-4 27-10z"/><path d="m3636 1475c-4-11-12-29-16-40-10-23-32-125-60-280-11-60-27-141-35-180-25-114-35-178-39-251-5-81 1-114 20-114 8 0 19-11 24-25s14-25 20-25c5 0 10-7 10-15 0-18 16-20 26-4 4 8 10 5 18-7 9-17 11-15 17 16 18 87 31 130 40 130 5 0 9 13 9 29s6 34 14 40c7 6 19 33 26 59s21 58 30 72c30 43 51 327 28 366-3 5-9 36-12 69-11 98-66 155-66 68l-1-48-16 30c-10 17-20 53-23 80-5 38-8 45-14 30zm73-230c0-31-2-36-9-20-13 29-13 94 0 75 5-8 9-33 9-55z"/><path d="m2038 1213c-19-5-23-15-11-26 3-4 14 0 23 8 17 15 50 11 50-6 0-5-12-14-27-20-61-25-76-35-135-91-34-32-62-58-64-58-8 0 29 75 46 93 11 11 18 22 16 24-7 7-46-21-46-33 0-6-8-18-19-28-10-9-26-34-36-56s-21-40-25-40c-3 0-19 14-35 30-33 34-51 40-35 11 13-26 13-31-5-31-9 0-19 17-26 46-8 30-15 41-20 33-4-7-6-16-3-20 2-4 0-10-5-13s-12-45-15-94c-16-226-29-300-64-356s-31-136 5-122c34 14 59-44 31-72-15-15-3-15 24-1 18 10 24 8 35-7 12-16 15-17 23-4 8 12 10 12 16-3 8-22 23-22 22 1-3 36 14 92 30 104 10 7 37 38 61 70 23 31 48 59 56 61 7 3 22 31 34 62 38 101 121 245 141 245 10 0 9-69-1-76-5-3-9 3-9 12 0 16-1 16-14-2-8-10-10-21-5-25 5-3 7-30 5-61-4-46-1-59 14-73 11-10 24-32 30-51 8-22 16-31 26-27 9 3 14-1 14-12 0-10-4-13-12-9-7 5-2-7 12-25 39-52 104-93 156-101 41-6 55-3 114 27 62 30 110 76 96 91-3 3-20 5-36 5-17 0-30 5-30 12 0 12-113 75-136 75-16 0-19 17-4 22 7 2 7 14 0 37-12 42-6 116 10 136 19 23 5 169-21 223-42 85-159 139-251 115zm-268-313c0-5-4-10-10-10-5 0-10 5-10 10 0 6 5 10 10 10 6 0 10-4 10-10zm315-89c3-5 1-12-5-16-5-3-10 1-10 9 0 18 6 21 15 7z"/><path d="m1965 1170c-3-5-2-10 4-10 5 0 13 5 16 10 3 6 2 10-4 10-5 0-13-4-16-10z"/><path d="m2995 710c-3-5-1-10 4-10 6 0 11 5 11 10 0 6-2 10-4 10-3 0-8-4-11-10z"/></g></svg>