<?xml version="1.0" standalone="no"?>
<!DOCTYPE svg PUBLIC "-//W3C//DTD SVG 20010904//EN"
 "http://www.w3.org/TR/2001/REC-SVG-20010904/DTD/svg10.dtd">
<svg version="1.0" xmlns="http://www.w3.org/2000/svg"
 width="235.000000pt" height="235.000000pt" viewBox="0 0 235.000000 235.000000"
 preserveAspectRatio="xMidYMid meet">
<metadata>
Created by potrace 1.11, written by Peter Selinger 2001-2013
</metadata>
<g transform="translate(0.000000,235.000000) scale(0.100000,-0.100000)"
fill="#000000" stroke="none">
<path d="M1769 2343 c-1 -5 0 -55 1 -111 1 -83 -2 -117 -20 -170 -27 -84 -78
-155 -136 -190 -35 -21 -44 -32 -40 -47 12 -51 65 -185 83 -211 29 -41 86
-158 113 -231 16 -45 28 -63 40 -63 15 0 18 11 19 75 3 150 68 293 199 434 23
25 24 25 54 8 l31 -18 -6 63 c-12 132 -95 282 -213 381 -71 60 -123 94 -125
80z"/>
<path d="M301 2240 c-12 -7 -13 -15 -1 -52 53 -177 -33 -444 -195 -603 l-72
-71 38 -59 c53 -83 88 -163 104 -242 21 -97 18 -149 -10 -244 -14 -46 -27 -90
-28 -98 -1 -11 20 -18 88 -26 236 -30 392 -123 446 -264 30 -78 30 -198 1
-264 -27 -60 -79 -125 -114 -143 -16 -8 -28 -20 -28 -27 0 -10 133 -65 175
-73 6 -1 35 -9 65 -18 30 -9 71 -19 90 -22 19 -3 71 -12 115 -19 77 -12 302
-13 355 0 14 3 41 8 60 11 376 61 720 283 854 551 39 79 69 198 69 283 1 109
-16 167 -69 242 -30 43 -36 71 -20 96 18 29 33 197 24 259 -16 103 -71 214
-149 298 l-28 29 -26 -24 c-50 -47 -107 -129 -135 -197 -30 -72 -38 -118 -39
-224 l-1 -66 -46 -18 c-25 -9 -47 -16 -48 -14 -2 2 -11 29 -21 59 -71 218
-151 337 -312 463 -73 56 -78 54 -116 -50 -42 -115 -44 -125 -45 -238 0 -172
28 -266 110 -374 55 -72 67 -93 61 -107 -8 -23 -41 -16 -121 23 -212 105 -294
306 -228 560 l16 63 -31 62 c-17 35 -57 99 -89 143 -172 238 -368 368 -590
390 -30 4 -64 8 -75 10 -11 2 -27 0 -34 -5z m1886 -1162 c27 -31 34 -53 20
-67 -16 -16 -23 -14 -36 15 -10 22 -17 25 -44 22 -17 -3 -39 -8 -48 -12 -11
-5 -19 -1 -23 11 -19 47 92 73 131 31z m-314 -27 c26 -21 9 -42 -28 -35 -52 9
-92 -17 -102 -68 -10 -48 -29 -61 -39 -24 -12 51 32 128 81 138 33 8 72 3 88
-11z m273 -69 c38 -25 44 -104 13 -169 -45 -93 -175 -126 -273 -69 -81 48
-118 145 -76 199 20 25 27 28 59 22 20 -4 41 -10 46 -15 17 -14 98 -3 140 19
42 21 72 26 91 13z"/>
<path d="M2054 929 c-3 -6 -1 -16 5 -22 9 -9 14 -8 21 3 9 15 4 30 -10 30 -5
0 -12 -5 -16 -11z"/>
<path d="M2112 914 c-1 -14 -4 -30 -8 -35 -8 -14 -38 -11 -60 6 -28 21 -51 18
-70 -10 -26 -40 -84 -44 -84 -6 -1 25 -27 54 -45 48 -22 -9 -18 -53 8 -88 43
-59 122 -81 193 -54 62 23 88 56 88 112 1 48 -18 72 -22 27z"/>
<path d="M1910 897 c0 -19 10 -27 26 -20 21 8 17 33 -6 33 -11 0 -20 -6 -20
-13z"/>
</g>
</svg>
